<svg xmlns="http://www.w3.org/2000/svg" viewBox="0 0 376 65.71"><defs><style>.cls-1{fill:#2b3575;}.cls-2{fill:#ef3641;}</style></defs><g id="Layer_2" data-name="Layer 2"><g id="Layer_1-2" data-name="Layer 1"><path class="cls-1" d="M0,57.49A3.38,3.38,0,0,1,3.05,53.8c2.69-.45,4.92,2.67,8.66,2.49,3-.15,5.78-3.2,5.66-5.49-.22-2.49-3.24-4.52-6.78-6.64-4.08-2.5-7.21-4.85-7.39-8.48-.35-7.07,9.56-13.07,17.45-13.46,4.14-.42,8.07,1.16,8.22,4.07.19,3.84-3.15,3.69-6.48,3.86a17.26,17.26,0,0,0-8.32,2.28c-2.62,1.59-2.66,3-.19,4.59,6.78,4.46,10.94,6.44,11.29,13.61s-6.32,13.22-14,13.6C6.08,64.48.19,61.23,0,57.49Z"/><path class="cls-1" d="M34.39,53.92c-.1-10.51,6.83-28.34,13.86-33.69,3.8-3,7.67-2.77,11.06.6C61.84,23.52,63,27.11,62,29.44a3.62,3.62,0,0,1-6.21.83c-1.32-1.5-1-2.76-2.45-3.21-4.41-.72-11.89,20.58-11,27.3.27,3.32,2.92,4.44,5.63,2.33,2-1.67,5.12-6.09,6.23-6.77a3.58,3.58,0,0,1,5.06,1.32c2.38,3.94-5.26,11.5-9.54,13.48C42.07,68,34.52,62.76,34.39,53.92Z"/><path class="cls-1" d="M86.42,55.31l1.06-3.7c1-3.69.52-4.29-3.23-4.31-1.56,0-3.23,0-4.79,0a3.11,3.11,0,0,0-3.21,2.45c-1.75,6.65-2.65,9.61-3.13,10.46a3.64,3.64,0,0,1-4.29,1.67,3.5,3.5,0,0,1-2.58-3.72c.07-2.82,8.86-33.65,10.72-35.93a3.92,3.92,0,0,1,4.21-1.35,3.62,3.62,0,0,1,2.26,3.74c0,1.15-2,7.7-3.18,11.5-.62,2.22.17,3.33,2.56,3.31l5.82-.28c2.48-.23,2.63-1.59,3.61-5,3.62-11,4.08-12.07,4.66-13.14a3.75,3.75,0,0,1,4.69-2c2.12.83,2.86,3.19,1.87,6.26L97.63,44.14c-3.85,12.78-4.2,18.32-8.73,17.19C86.58,60.72,85.64,58.58,86.42,55.31Z"/><path class="cls-1" d="M112.07,56.13c-6.15-8.55-1.72-24.28,5.85-33.4a17,17,0,0,1,4.59-3.87c2.65-1.17,4.34-.84,6.2,1.15a6.24,6.24,0,0,0,2.59,1.85c3.31,1.61,4.53,7.38,3.93,12C134,42.66,131.12,52,125.35,57.34,121,61.52,115.64,61,112.07,56.13Zm15-27.81c-.82-1.94-2.36-1.45-3.94.3-3.81,5.08-6.54,10.94-6.2,17.8.14,2.9.86,4.74,2.53,4.87C123.62,51.81,128.86,33.44,127,28.32Z"/><path class="cls-1" d="M145.2,54.49c-6.15-8.54-1.72-24.28,5.85-33.4a17.37,17.37,0,0,1,4.59-3.87c2.66-1.17,4.34-.83,6.21,1.16a6.24,6.24,0,0,0,2.58,1.85c3.31,1.6,4.53,7.37,3.93,12-1.23,8.81-4.11,18.12-9.88,23.5C154.11,59.88,148.77,59.31,145.2,54.49Zm15-27.81c-.82-1.93-2.36-1.44-3.94.3-3.81,5.08-6.54,10.94-6.2,17.8.14,2.91.86,4.75,2.53,4.87C156.75,50.17,162,31.8,160.17,26.68Z"/><path class="cls-1" d="M173.82,52.25C173.4,50,176.37,40.46,179.49,30c1.34-4.44,2.69-8.88,3.92-13.42,1-3.79,2.46-5.12,5-4.61s3.47,2.74,2.31,6.75c-2.12,7.6-4.25,15.1-5.59,19.64-1.51,5.18-2.34,7.41-.85,8.06.75.38,2.4.09,6-.81,3.19-.79,5.89-.82,6.46,2.18a3.62,3.62,0,0,1-2.29,4.27c-4.7,1.8-14.16,4.24-16,4.23C175.9,56.31,174.37,54.93,173.82,52.25Z"/><path class="cls-1" d="M203.52,34.08c-3.58-5-1-14.15,3.42-19.47a10.06,10.06,0,0,1,2.68-2.26,2.73,2.73,0,0,1,3.61.67,3.5,3.5,0,0,0,1.51,1.08c1.93.94,2.64,4.3,2.29,7-.72,5.14-2.39,10.56-5.76,13.7C208.72,37.23,205.61,36.89,203.52,34.08Zm8.74-16.21c-.49-1.13-1.38-.84-2.3.17a15.89,15.89,0,0,0-3.62,10.38c.09,1.69.5,2.77,1.48,2.84C210.26,31.57,213.31,20.85,212.26,17.87Z"/><path class="cls-1" d="M220.27,33.92a12.23,12.23,0,0,1,.89-4.11,131.4,131.4,0,0,0,3.5-15.16c.18-2.5,1.32-4,3.25-4.35,5.93-1.57,11.66-3.43,12.26.06.21,1.81-1.23,2.12-3.09,2.58-1.14.18-2.21.66-6.19,1.28-1.81.27-1.88,1.24-2.48,5.1-.23,1.35.15,1.81,1.55,1.8,2.24-.11,3.87-.25,4.2,1.56.62,2.76-2.35,2.72-5.79,3.26a1.85,1.85,0,0,0-1.86,1.67c-1,4.05-2,6.9-2.55,7.41a2.08,2.08,0,0,1-3.69-1.1Z"/><path class="cls-1" d="M244.05,40.61c-.37-13.83,9.86-34.33,20.87-34.87a7.05,7.05,0,0,1,7.35,7.65c-.1,2.09-.88,3.27-2.31,3.87a3.41,3.41,0,0,1-4.11-1.05c-1.52-1.38-2-2.51-3.69-1-4.6,3.76-9.48,14.62-10.38,21.64-.45,3.57.53,6.64,3.24,4.53,2.21-1.67,3.09-2.76,4.85-2.84a3.61,3.61,0,0,1,3.72,3.56c.19,3.84-6.17,7.8-10.85,8C246.93,50.46,244.3,45.8,244.05,40.61Z"/><path class="cls-1" d="M279.79,43.43c-6.15-8.55-1.72-24.28,5.85-33.4a17.19,17.19,0,0,1,4.6-3.87c2.65-1.18,4.33-.84,6.2,1.15A6.18,6.18,0,0,0,299,9.16c3.31,1.61,4.53,7.38,3.92,12-1.23,8.8-4.1,18.11-9.88,23.49C288.7,48.82,283.36,48.25,279.79,43.43Zm15-27.82c-.83-1.93-2.36-1.44-3.95.31-3.8,5.08-6.54,10.94-6.2,17.79.15,2.91.86,4.75,2.53,4.87C291.34,39.11,296.58,20.73,294.77,15.61Z"/><path class="cls-1" d="M308.43,41.49c-.12-2.39,1.08-7.65,3.7-15.69.8-2.86,2.32-7.93,3.47-12,2.34-7.51,3.4-11.31,9.31-9.63,7.81,2.12,13,6.34,16,12.75,2.58,5.81,2,11.35-1.59,16.32-6.83,9.18-16,13.39-27.08,12.47C309.77,45.49,308.56,44.09,308.43,41.49Zm26.18-18.16c-.21-4.15-4.31-9.26-8.33-10.41-1.59-.55-2.37.43-3,2.54-.8,2.74-5.54,18.7-5.8,19.75-.21,2,1,2.87,2.83,2.36C327.29,35.36,334.62,29.89,334.61,23.33Z"/><path class="cls-1" d="M347.38,37.59a50.18,50.18,0,0,1,.95-10.45c.72-4.31,3.91-17.69,4.83-20.23,1.63-5,3.62-6.74,7.68-6.74,7-.34,14.55-.61,15.07,3.64,1,4.74-6.43,4.69-12.19,4-2-.11-3.11.26-3.53,2.36-.32,1.79-.77,3.37-1.1,5.05a1.81,1.81,0,0,0,1.78,2.42c4.49.19,7.48-.37,8.08,3.24.44,4.87-4.69,4.19-9.86,5-2.07.21-2.77.77-3.2,2.66-.25,1.26-.39,2.73-.53,4.09,0,1.66.86,2.56,2.73,2.47,6.54-.33,10.37-3,11.54,1.72a3.63,3.63,0,0,1-1.89,3.94c-1.62.92-13,2.62-14.34,2.69C349.54,43.32,347.57,41.43,347.38,37.59Z"/><path class="cls-2" d="M205.48,53.71,231,50.39a4.31,4.31,0,0,0-1.11-8.55l-25.5,3.32a4.31,4.31,0,1,0,1.11,8.55"/></g></g></svg>